<?xml version="1.0" encoding="UTF-8"?>
<svg height="68" id="Layer_2" data-name="Layer 2" xmlns="http://www.w3.org/2000/svg" viewBox="0 0 600.79 150">
  <defs>
    <style>
      .cls-1 {
        fill: #fff;
      }

      .cls-2 {
        fill: #fff;
      }
    </style>
  </defs>
  <g id="Layer_4" data-name="Layer 4">
    <g>
      <path class="cls-2" d="m54.65,139.2c0-5.08,4.24-9.32,9.32-9.32,36.44,0,60.8-22.46,60.8-55.71s-24.36-55.5-60.8-55.5H9.32C4.24,18.66,0,14.42,0,9.34S4.24.02,9.32.02h54.65C110.79.02,143.42,30.52,143.42,74.16s-32.62,74.36-79.44,74.36c-5.08,0-9.32-4.24-9.32-9.32Zm-45.33,9.32c-5.08,0-9.32-4.24-9.32-9.32s4.24-9.32,9.32-9.32h15.04c5.08,0,9.32,4.24,9.32,9.32s-4.24,9.32-9.32,9.32h-15.04Z"/>
      <path class="cls-1" d="m273.28,25.44v-6.78h-82.41c-5.08,0-9.32-4.24-9.32-9.32S185.79.02,190.87.02h91.52c5.3,0,9.32,4.24,9.32,9.32v16.1c0,5.08-4.02,9.32-9.32,9.32s-9.11-4.24-9.11-9.32Zm-82.41,123.08c-5.08,0-9.32-4.24-9.32-9.32s4.24-9.32,9.32-9.32h84.95v-6.78c0-5.3,4.03-9.32,9.32-9.32s9.11,4.02,9.11,9.32v16.1c0,5.08-4.02,9.32-9.11,9.32h-94.27Zm.64-65.04c-5.08,0-9.11-4.02-9.11-9.32s4.02-9.11,9.11-9.11h57.62c5.08,0,9.32,4.03,9.32,9.11s-4.24,9.32-9.32,9.32h-57.62Z"/>
      <path class="cls-1" d="m336.41,146.61c-4.24-2.97-5.08-8.9-1.91-12.92l43.64-59.53-43.64-59.32c-3.18-4.24-2.33-9.96,1.91-12.92,4.02-3.18,9.96-2.33,12.92,1.91l95.75,129.86c2.97,4.02,2.12,9.96-1.91,12.92-3.6,2.75-9.53,2.54-13.13-1.91l-40.46-54.87-40.25,54.87c-3.18,3.6-8.47,5.3-12.92,1.91Zm66.31-90.03c-4.02-2.97-5.08-8.9-1.91-12.92l29.23-39.83c3.18-4.24,8.9-5.08,13.13-1.91,4.02,2.97,4.87,8.69,1.91,12.92l-29.45,39.83c-2.97,4.02-8.69,5.08-12.92,1.91Z"/>
      <path class="cls-1" d="m488.3,131.78c-3.18-2.97-4.02-7.84-1.7-11.44l8.47-14.83c2.54-4.45,8.26-5.93,12.71-3.39,4.45,2.75,5.93,8.26,3.39,12.71l-4.45,7.63c9.32,5.51,22.24,8.9,35.59,8.9,25,0,39.83-11.44,39.83-30.29,0-16.31-10.8-26.06-30.72-27.96-3.39-.42-6.36-2.54-7.63-5.72-1.48-3.18-.85-6.78,1.27-9.32l31.99-39.4h-67.15v6.78c0,5.08-4.24,9.32-9.32,9.32s-9.32-4.24-9.32-9.32V9.34c0-5.08,4.24-9.32,9.32-9.32h85.58c5.3,0,9.32,4.24,9.32,9.32v12.5c0,2.12-.64,4.24-2.12,5.93l-24.36,30.08c19.91,6.78,31.78,22.24,31.78,43.22,0,22.46-15.46,48.94-58.47,48.94-21.18,0-41.31-6.78-54.02-18.22Z"/>
      <circle class="cls-2" cx="55.88" cy="74.51" r="15"/>
    </g>
  </g>
</svg>