<?xml version="1.0" encoding="UTF-8"?>
<svg height="80" xmlns="http://www.w3.org/2000/svg" xmlns:xlink="http://www.w3.org/1999/xlink" viewBox="0 0 638.13 156.94">
  <g>
    <path fill="#fff" d="m57.18,145.63c0-5.32,4.43-9.75,9.75-9.75,38.12,0,63.61-23.49,63.61-58.29s-25.49-58.07-63.61-58.07H9.75C4.43,19.52,0,15.09,0,9.77S4.43.02,9.75.02h57.18C115.92.02,150.05,31.93,150.05,77.59s-34.13,77.79-83.11,77.79c-5.32,0-9.75-4.43-9.75-9.75Zm-47.43,9.75c-5.32,0-9.75-4.43-9.75-9.75s4.43-9.75,9.75-9.75h15.74c5.32,0,9.75,4.43,9.75,9.75s-4.43,9.75-9.75,9.75h-15.74ZM289.27,26.61v-7.09h-86.22c-5.32,0-9.75-4.43-9.75-9.75S197.74.02,203.06.02h95.75c5.54,0,9.75,4.43,9.75,9.75v16.84c0,5.32-4.21,9.75-9.75,9.75s-9.53-4.43-9.53-9.75Zm-86.22,128.77c-5.32,0-9.75-4.43-9.75-9.75s4.43-9.75,9.75-9.75h88.88v-7.09c0-5.54,4.21-9.75,9.75-9.75s9.53,4.21,9.53,9.75v16.84c0,5.32-4.21,9.75-9.53,9.75h-98.63Zm.66-68.04c-5.32,0-9.53-4.21-9.53-9.75s4.21-9.53,9.53-9.53h60.29c5.32,0,9.75,4.21,9.75,9.53s-4.43,9.75-9.75,9.75h-60.29Zm154.76,66.05c-4.43-3.1-5.32-9.31-2-13.52l45.66-62.28-45.66-62.06c-3.32-4.43-2.44-10.41,2-13.52,4.21-3.32,10.42-2.44,13.52,2l100.18,135.86c3.1,4.21,2.22,10.42-1.99,13.52-3.77,2.88-9.98,2.66-13.74-1.99l-42.33-57.41-42.11,57.41c-3.32,3.77-8.87,5.54-13.52,1.99Zm69.37-94.19c-4.21-3.1-5.32-9.31-2-13.52l30.59-41.67c3.32-4.44,9.31-5.32,13.74-2,4.21,3.1,5.1,9.09,1.99,13.52l-30.81,41.67c-3.1,4.21-9.09,5.32-13.52,2Z"/>
    <path fill="#fff" d="m520.44,137.87c-3.32-3.1-4.21-8.2-1.77-11.97l8.86-15.51c2.66-4.65,8.64-6.21,13.3-3.55,4.65,2.88,6.21,8.64,3.55,13.3l-4.65,7.98c9.75,5.77,23.27,9.31,37.23,9.31,26.15,0,41.67-11.97,41.67-31.69,0-17.07-11.3-27.26-32.14-29.26-3.55-.44-6.65-2.66-7.98-5.99-1.55-3.32-.89-7.09,1.33-9.75l33.47-41.23h-70.26v7.09c0,5.32-4.43,9.75-9.75,9.75s-9.75-4.43-9.75-9.75V9.77c0-5.32,4.43-9.75,9.75-9.75h89.54c5.54,0,9.75,4.43,9.75,9.75v13.08c0,2.22-.66,4.43-2.22,6.2l-25.49,31.47c20.83,7.09,33.25,23.27,33.25,45.22,0,23.49-16.18,51.2-61.17,51.2-22.16,0-43.22-7.09-56.52-19.06Z"/>
  </g>
</svg>